<?xml version="1.0" standalone="no"?>
<!DOCTYPE svg PUBLIC "-//W3C//DTD SVG 20010904//EN"
 "http://www.w3.org/TR/2001/REC-SVG-20010904/DTD/svg10.dtd">
<svg version="1.0" xmlns="http://www.w3.org/2000/svg"
 width="512.000000pt" height="512.000000pt" viewBox="0 0 512.000000 512.000000"
 preserveAspectRatio="xMidYMid meet">
<metadata>
Created by potrace 1.14, written by Peter Selinger 2001-2017
</metadata>
<g transform="translate(0.000000,512.000000) scale(0.100000,-0.100000)"
fill="#000000" stroke="none">
<path d="M4700 5116 c0 -2 6 -9 14 -15 10 -9 16 -8 26 4 11 13 8 15 -14 15
-14 0 -26 -2 -26 -4z"/>
<path d="M2627 4795 c-14 -10 -18 -31 -22 -99 -4 -68 -9 -93 -25 -113 -11 -14
-20 -32 -20 -39 0 -8 -4 -14 -10 -14 -5 0 -10 -7 -10 -16 0 -9 -9 -18 -20 -21
-11 -3 -20 -9 -20 -14 0 -4 -11 -20 -25 -35 -14 -15 -25 -35 -24 -43 3 -30 -1
-32 -18 -15 -16 16 -18 15 -31 -5 -8 -11 -23 -21 -33 -21 -11 0 -19 -6 -19
-14 0 -8 -16 -16 -39 -20 -21 -3 -41 -13 -45 -21 -3 -8 -15 -15 -26 -15 -25 0
-26 -16 -3 -29 27 -15 7 -26 -22 -13 -35 16 -75 15 -75 -2 0 -8 -15 -17 -34
-20 -19 -4 -37 -13 -40 -21 -3 -8 -12 -15 -19 -15 -8 0 -20 -7 -27 -15 -7 -8
-23 -15 -37 -15 -13 0 -26 -7 -29 -15 -4 -8 -14 -15 -25 -15 -10 0 -23 -9 -29
-20 -6 -11 -21 -20 -34 -20 -13 0 -26 -7 -30 -15 -3 -8 -12 -15 -20 -15 -7 0
-16 -7 -20 -15 -3 -8 -12 -15 -19 -15 -8 0 -26 -11 -40 -24 -14 -13 -36 -31
-49 -40 l-22 -16 22 -20 c29 -27 58 -26 66 3 3 12 18 28 33 34 15 7 42 22 58
33 17 10 58 33 93 50 56 27 83 60 50 60 -9 0 -8 3 2 10 9 6 18 6 24 0 15 -15
42 -12 56 5 7 8 21 15 31 15 10 0 37 13 61 29 24 15 55 31 71 35 15 3 27 10
27 15 0 5 14 12 30 16 17 4 30 10 30 13 0 4 24 18 53 32 28 13 70 42 93 65 22
22 58 55 79 74 41 36 85 94 85 113 0 6 8 20 17 30 9 10 17 35 17 56 1 33 4 37
29 40 25 3 27 1 21 -22 -5 -20 -2 -26 10 -26 9 0 16 -6 16 -14 0 -7 9 -16 20
-19 11 -3 25 -18 32 -34 7 -15 25 -41 40 -56 16 -16 28 -37 28 -48 0 -10 9
-28 20 -39 11 -11 20 -32 20 -46 0 -14 7 -38 14 -52 51 -93 72 -180 55 -229
-6 -19 -8 -37 -5 -40 3 -4 -1 -14 -9 -23 -9 -10 -18 -35 -21 -56 -3 -22 -10
-48 -15 -59 -18 -40 -39 -111 -39 -130 0 -12 5 -26 12 -33 9 -9 4 -14 -20 -23
-31 -11 -44 -41 -23 -53 41 -26 166 14 231 74 25 23 59 48 77 57 18 8 35 23
38 34 4 10 10 19 15 19 12 0 90 122 90 142 0 9 4 19 9 22 14 9 61 -12 61 -27
0 -8 9 -24 20 -37 11 -13 20 -30 20 -38 0 -8 7 -20 17 -27 9 -7 17 -25 18 -41
3 -37 32 -114 51 -135 9 -10 14 -37 14 -72 0 -46 3 -57 16 -57 15 0 16 -13 10
-137 -4 -76 -8 -148 -8 -160 0 -13 -4 -23 -8 -23 -5 0 -12 -10 -16 -22 -3 -12
-13 -28 -20 -36 -16 -16 -19 -52 -4 -52 6 0 10 -9 10 -20 0 -23 -18 -27 -26
-5 -7 17 -24 10 -24 -10 0 -7 -19 -43 -42 -79 -32 -47 -49 -65 -65 -65 -16 -1
-23 -7 -23 -21 0 -12 -12 -26 -31 -35 -25 -13 -28 -19 -18 -31 6 -8 19 -15 28
-15 9 -1 3 -5 -14 -8 -17 -4 -36 -3 -43 3 -10 7 -17 5 -23 -7 -6 -9 -21 -17
-34 -17 -13 0 -37 -8 -55 -17 -30 -17 -32 -17 -45 1 -10 13 -21 17 -37 13 -16
-5 -36 4 -75 33 -29 22 -55 40 -58 40 -3 0 -27 9 -52 21 -34 16 -63 20 -117
19 -99 -3 -106 -2 -106 15 0 8 5 15 10 15 6 0 16 12 23 28 6 15 14 29 17 32
24 20 50 97 50 145 0 49 -4 60 -48 117 -26 35 -54 79 -62 98 -7 19 -24 51 -37
70 -13 19 -23 41 -23 50 0 8 -7 24 -15 34 -8 11 -15 26 -15 33 0 7 -15 35 -34
61 -18 27 -41 64 -51 83 -22 44 -73 91 -94 87 -9 -2 -17 -15 -19 -29 -2 -20 9
-39 47 -78 28 -29 51 -58 51 -65 0 -7 13 -25 30 -41 16 -15 32 -42 36 -59 4
-17 13 -40 20 -51 8 -11 14 -26 14 -33 0 -8 13 -34 30 -58 16 -25 33 -57 36
-72 4 -15 27 -49 51 -77 41 -48 54 -75 34 -75 -5 0 -13 -10 -16 -22 -4 -13
-16 -32 -26 -44 -28 -30 -79 -140 -79 -170 0 -19 -5 -25 -17 -22 -14 2 -17 12
-15 48 5 80 -63 191 -149 246 -47 29 -49 30 -49 1 0 -15 20 -40 60 -75 43 -39
62 -63 70 -92 6 -22 15 -40 20 -40 5 0 12 -25 16 -57 6 -54 6 -57 -22 -77 -15
-11 -35 -29 -43 -38 -9 -10 -25 -18 -36 -18 -29 0 -45 -19 -45 -52 0 -22 -7
-31 -33 -41 -46 -20 -89 -80 -95 -133 -4 -35 -1 -45 13 -50 12 -5 23 -1 31 11
18 24 98 33 122 13 37 -32 116 -52 211 -55 52 -1 98 -6 101 -10 4 -5 15 -30
24 -57 15 -45 15 -50 -1 -61 -12 -9 -14 -19 -8 -41 4 -16 10 -71 12 -122 4
-80 2 -96 -15 -119 l-19 -27 -701 1 c-606 1 -703 3 -722 16 -15 10 -17 16 -8
19 10 4 14 65 16 294 1 159 5 299 7 310 3 13 15 24 30 28 13 3 248 6 520 6
l496 0 -3 33 c-3 27 -7 32 -28 30 -50 -4 -68 -4 -270 0 -277 5 -456 20 -479
41 -10 9 -27 16 -38 16 -12 0 -23 8 -26 20 -4 16 -14 20 -46 20 -29 0 -41 4
-41 15 0 8 -13 21 -29 29 -16 9 -50 48 -77 90 -27 41 -53 75 -57 76 -5 0 -11
-9 -14 -20 -3 -11 -9 -20 -14 -20 -16 0 -23 32 -11 51 18 28 15 39 -10 39 -13
0 -32 7 -42 15 -11 8 -14 15 -8 15 22 0 13 46 -14 71 -32 30 -74 113 -74 146
0 14 -6 37 -14 51 -44 83 -64 300 -33 357 9 17 17 35 17 42 0 13 31 33 49 33
6 0 11 -9 11 -20 0 -12 12 -26 31 -36 23 -11 30 -21 26 -35 -4 -14 0 -19 13
-19 11 0 23 -6 27 -12 15 -24 72 -58 96 -58 13 0 38 -7 55 -16 18 -8 43 -14
57 -12 15 2 29 -4 38 -15 9 -13 23 -18 45 -15 l32 3 -22 33 c-13 18 -34 35
-48 38 -14 2 -38 11 -53 19 -16 8 -42 15 -58 15 -16 0 -29 5 -29 11 0 5 -15
17 -32 25 -59 27 -88 45 -88 53 0 4 -10 18 -22 31 -13 13 -32 53 -44 89 -17
57 -23 66 -42 64 -20 -3 -62 -35 -62 -49 0 -3 -9 -17 -20 -31 -11 -14 -20 -38
-20 -52 0 -15 -6 -33 -12 -40 -18 -17 -18 -373 0 -379 6 -2 12 -19 12 -37 0
-19 7 -40 15 -48 7 -8 17 -26 20 -40 4 -14 13 -28 19 -30 7 -3 16 -19 19 -37
6 -26 10 -30 27 -25 14 5 20 2 20 -9 0 -9 -4 -16 -10 -16 -16 0 -12 -27 5 -34
8 -3 19 2 24 12 5 9 13 13 17 9 4 -4 2 -13 -4 -19 -20 -20 -14 -45 18 -80 16
-18 30 -37 30 -43 0 -5 12 -23 25 -38 19 -21 31 -27 46 -22 18 6 20 4 11 -11
-8 -15 -2 -26 36 -62 26 -24 59 -48 73 -53 23 -9 26 -14 20 -37 -6 -20 -15
-28 -37 -30 -16 -2 -34 -8 -41 -13 -6 -6 -28 -7 -47 -3 -22 4 -42 2 -49 -5 -8
-6 -27 -10 -43 -10 -16 0 -36 -1 -44 -1 -8 -1 -148 0 -310 0 -162 1 -312 1
-333 1 l-37 -1 2 -787 3 -788 60 1 c82 2 62 2 1195 -2 879 -3 1006 -1 1013 11
7 13 10 13 23 1 12 -13 68 -15 351 -14 184 0 360 3 389 7 33 5 57 4 64 -3 7
-7 34 -6 87 1 47 7 86 8 100 2 32 -12 176 -11 288 1 62 8 91 8 93 0 5 -14 125
-13 140 2 8 8 15 8 26 -1 8 -7 24 -10 36 -6 16 5 20 15 21 48 3 167 6 217 12
223 4 4 22 0 39 -9 18 -8 54 -25 80 -36 42 -18 47 -24 53 -63 16 -93 96 -178
169 -178 14 0 28 -4 31 -10 11 -17 23 -11 18 9 -2 10 -14 24 -26 30 -69 37
-127 81 -127 97 0 7 -7 20 -16 29 -27 26 -10 45 42 45 37 0 54 6 88 32 22 18
43 37 45 42 2 5 11 16 20 25 30 31 81 194 81 261 0 70 -50 259 -76 291 -8 8
-14 19 -14 23 0 17 -69 105 -126 161 -80 77 -82 78 -145 111 -30 16 -59 33
-66 40 -6 6 -30 14 -53 18 -26 4 -38 10 -34 17 7 12 6 360 -1 368 -2 2 -186 5
-407 8 -222 2 -418 7 -435 10 -22 3 -33 1 -33 -6 0 -8 -19 -11 -57 -9 -54 3
-58 5 -61 29 -2 19 5 32 29 50 17 13 41 35 53 48 11 14 28 32 36 41 20 22 60
78 60 84 0 3 13 24 29 48 16 24 33 61 37 83 4 22 12 43 18 47 16 11 15 420 -1
425 -7 3 -15 21 -19 41 -3 20 -12 47 -20 59 -8 12 -14 30 -14 40 0 15 -21 67
-51 123 -4 8 -18 35 -29 60 -65 136 -103 210 -111 210 -4 0 -11 9 -14 20 -6
19 -45 29 -45 12 0 -15 25 -62 33 -62 4 0 7 -7 7 -17 0 -15 -1 -15 -19 1 -17
15 -19 15 -25 1 -10 -27 -7 -53 7 -59 6 -3 2 -3 -9 -1 -23 6 -34 -15 -34 -63
0 -12 -7 -25 -15 -28 -9 -4 -15 -19 -15 -40 0 -19 -5 -34 -10 -34 -6 0 -24
-15 -40 -32 -65 -72 -94 -98 -107 -98 -6 0 -13 -7 -17 -15 -6 -16 -96 -22 -96
-7 0 14 30 71 41 77 5 4 9 24 9 46 0 27 4 39 14 39 20 0 29 83 24 215 -2 64
-8 109 -16 117 -6 6 -12 21 -12 32 0 12 -6 32 -13 46 -8 14 -26 48 -41 77 -15
28 -34 57 -42 64 -8 6 -14 15 -14 19 0 13 -53 90 -62 90 -4 0 -8 9 -8 20 0 11
-7 20 -15 20 -8 0 -23 17 -34 38 -11 21 -38 56 -60 79 -63 62 -64 63 -84 48z
m-37 -281 c0 -9 -5 -14 -12 -12 -18 6 -21 28 -4 28 9 0 16 -7 16 -16z m360
-194 c0 -5 -5 -10 -11 -10 -5 0 -7 5 -4 10 3 6 8 10 11 10 2 0 4 -4 4 -10z
m437 -312 c-3 -8 -6 -5 -6 6 -1 11 2 17 5 13 3 -3 4 -12 1 -19z m-437 -278 c0
-5 -5 -10 -11 -10 -5 0 -7 5 -4 10 3 6 8 10 11 10 2 0 4 -4 4 -10z m610 -107
c0 -10 -5 -25 -10 -33 -7 -11 -10 -7 -10 18 0 17 5 32 10 32 6 0 10 -8 10 -17z
m-2540 -197 c0 -3 -4 -8 -10 -11 -5 -3 -10 -1 -10 4 0 6 5 11 10 11 6 0 10 -2
10 -4z m460 -570 c0 -9 -40 -13 -46 -5 -3 5 6 9 20 9 14 0 26 -2 26 -4z m1748
-64 c2 -7 -3 -12 -12 -12 -9 0 -16 7 -16 16 0 17 22 14 28 -4z m-508 -2 c0 -5
-7 -10 -15 -10 -8 0 -18 0 -22 -1 -4 0 -9 4 -11 10 -2 6 8 11 22 11 14 0 26
-4 26 -10z m-1470 -36 c0 -8 -4 -12 -10 -9 -5 3 -10 10 -10 16 0 5 5 9 10 9 6
0 10 -7 10 -16z m-74 -28 c18 -14 19 -29 19 -325 0 -222 -3 -313 -12 -322 -13
-13 -641 -17 -662 -5 -15 10 -16 619 -1 647 10 18 24 19 323 19 255 0 317 -3
333 -14z m1984 -1 c1 -5 -10 -11 -24 -13 -13 -2 -30 -10 -36 -18 -26 -31 -76
2 -55 36 8 14 115 9 115 -5z m1077 2 c4 -6 8 -50 8 -97 0 -47 4 -91 9 -98 4
-7 3 -19 -4 -27 -16 -20 -5 -33 23 -28 16 3 26 -1 30 -11 8 -21 -2 -25 -46
-17 -36 6 -40 9 -63 71 -14 36 -29 72 -35 80 -5 8 -12 22 -15 30 -20 53 -25
60 -43 60 -11 0 -26 -10 -32 -22 -7 -13 -15 -25 -19 -28 -6 -5 -80 -157 -99
-205 -5 -11 -18 -41 -30 -66 -11 -25 -21 -53 -21 -61 0 -9 -7 -21 -15 -28 -8
-7 -15 -22 -15 -35 0 -12 -14 -41 -30 -63 -25 -35 -36 -42 -64 -42 l-33 0 -7
81 c-6 69 -12 89 -41 135 -19 30 -39 54 -45 54 -5 0 -10 13 -10 29 0 48 -23
57 -58 21 -17 -16 -32 -30 -35 -30 -2 0 -7 18 -11 40 -3 21 -20 62 -36 90 -17
28 -30 54 -30 57 0 10 -49 51 -69 58 -10 3 -25 12 -31 20 -7 8 -27 15 -46 15
-31 0 -50 11 -38 23 3 3 217 6 474 6 365 1 471 -2 477 -12z m-98 -254 c1 -16
-6 -24 -24 -29 -44 -11 -55 0 -42 43 6 21 17 45 24 54 7 8 14 24 14 35 2 22
27 -70 28 -103z m-1191 61 c60 -58 68 -64 81 -64 18 0 71 -42 71 -57 0 -7 7
-13 15 -13 8 0 15 -4 15 -10 0 -15 -19 -12 -36 5 -10 9 -34 15 -62 15 -70 0
-91 -9 -98 -39 -4 -14 -12 -35 -19 -46 -13 -21 -53 -197 -57 -254 -4 -45 -19
-49 -41 -9 -21 40 -22 53 -19 286 2 138 5 182 15 182 6 1 30 9 52 20 22 11 42
19 43 20 2 0 20 -16 40 -36z m112 -285 c19 -28 43 -61 55 -74 42 -49 65 -80
65 -92 0 -17 -62 -27 -123 -20 -29 4 -56 2 -63 -4 -21 -18 -54 11 -54 48 0 17
4 34 9 37 5 4 12 30 16 59 7 56 28 97 48 97 6 0 28 -23 47 -51z m309 -40 c1
-13 6 -26 10 -29 4 -3 17 -26 30 -52 34 -72 10 -129 -45 -104 -24 11 -35 56
-13 56 11 0 9 32 -7 124 -5 30 -4 38 7 34 8 -3 16 -15 18 -29z m-409 -179 c0
-5 -5 -10 -11 -10 -5 0 -7 5 -4 10 3 6 8 10 11 10 2 0 4 -4 4 -10z m330 -10
c0 -5 -11 -10 -24 -10 -14 0 -28 5 -31 10 -4 6 7 10 24 10 17 0 31 -4 31 -10z
m319 -108 c6 -2 18 -10 26 -18 25 -25 86 -47 98 -35 6 6 23 11 38 11 15 0 32
7 39 15 7 8 18 15 26 15 7 0 21 8 31 18 31 32 52 34 65 7 6 -14 15 -25 20 -25
4 0 8 -8 8 -18 0 -28 83 -142 150 -207 98 -94 107 -102 126 -109 15 -6 16 -18
11 -128 -3 -67 -10 -125 -14 -129 -12 -12 -644 -12 -656 0 -6 6 -10 123 -9
297 0 256 -2 290 -17 301 -15 12 -14 14 8 32 15 11 22 24 18 34 -3 8 -3 18 1
22 4 4 10 -13 13 -36 3 -24 11 -45 18 -47z m-221 63 c6 -3 12 -18 12 -34 0
-17 7 -49 16 -71 15 -36 15 -41 0 -55 -9 -9 -16 -29 -16 -45 0 -16 -7 -30 -15
-34 -16 -6 -21 -61 -6 -70 12 -8 61 90 61 121 0 18 5 24 18 21 15 -3 17 -24
20 -241 1 -133 -2 -245 -7 -255 -8 -14 -24 -16 -98 -13 -71 2 -86 0 -75 -10 6
-7 12 -24 12 -36 0 -23 -3 -24 -57 -21 -50 3 -58 6 -58 23 0 16 6 20 30 17 17
-1 37 3 45 8 13 9 11 13 -10 29 -18 15 -21 22 -13 33 16 20 20 61 6 65 -7 3
-13 0 -13 -6 0 -6 -8 -18 -19 -28 -10 -10 -21 -30 -25 -45 l-6 -28 -153 -1
c-83 0 -226 -2 -317 -4 -91 -2 -169 -3 -175 -3 -158 -1 -485 11 -500 19 -20 9
-20 17 -14 312 3 192 10 312 17 330 l12 27 382 -2 383 -3 3 -97 c3 -91 12
-120 26 -82 3 9 6 28 6 43 0 16 9 40 20 54 11 14 20 32 20 40 0 33 31 42 169
47 137 5 295 2 319 -5z m-1447 -12 c11 -12 15 -84 19 -329 l5 -313 -23 -11
c-35 -15 -1404 -14 -1420 2 -16 16 -17 620 -2 649 10 18 29 19 709 19 637 0
700 -1 712 -17z m1589 -72 c0 -6 -4 -13 -10 -16 -5 -3 -10 1 -10 9 0 9 5 16
10 16 6 0 10 -4 10 -9z m-5 -61 c3 -5 1 -10 -4 -10 -6 0 -11 5 -11 10 0 6 2
10 4 10 3 0 8 -4 11 -10z m765 -310 c0 -5 -4 -10 -9 -10 -6 0 -13 5 -16 10 -3
6 1 10 9 10 9 0 16 -4 16 -10z m9 -54 c9 -11 8 -15 -5 -20 -23 -9 -24 -8 -24
14 0 23 13 26 29 6z m-3819 -151 c0 -14 -4 -25 -10 -25 -5 0 -10 11 -10 25 0
14 5 25 10 25 6 0 10 -11 10 -25z m2340 -55 c0 -5 -4 -10 -10 -10 -5 0 -10 5
-10 10 0 6 5 10 10 10 6 0 10 -4 10 -10z"/>
<path d="M2806 1750 c-3 -8 -6 -62 -8 -120 -3 -98 -5 -108 -33 -150 -19 -28
-46 -53 -72 -65 -54 -26 -67 -40 -59 -61 6 -15 8 -16 24 0 10 9 30 16 45 16
38 0 97 55 97 90 0 15 7 33 15 40 12 10 15 35 14 119 -2 106 -11 162 -23 131z"/>
<path d="M3336 1614 c-8 -31 8 -54 25 -37 13 13 8 55 -7 60 -7 2 -15 -8 -18
-23z"/>
<path d="M3280 1454 c0 -8 5 -12 10 -9 6 4 8 11 5 16 -9 14 -15 11 -15 -7z"/>
<path d="M1630 3904 c-6 -14 -10 -32 -10 -40 0 -8 -12 -20 -26 -26 -19 -9 -25
-18 -21 -35 3 -16 -2 -27 -14 -34 -11 -5 -19 -17 -19 -25 0 -11 9 -14 37 -12
30 2 38 8 44 29 3 14 23 43 43 63 37 39 49 86 21 86 -8 0 -15 5 -15 10 0 21
-31 9 -40 -16z"/>
<path d="M1540 3690 c0 -20 32 -44 44 -33 3 3 6 17 6 30 0 18 -5 23 -25 23
-18 0 -25 -5 -25 -20z"/>
<path d="M1694 3696 c-19 -51 34 -71 164 -62 60 4 72 2 72 -11 0 -14 37 -52
53 -53 33 -1 -60 97 -117 124 -45 21 -164 22 -172 2z"/>
<path d="M2000 3550 c0 -5 5 -10 10 -10 6 0 10 5 10 10 0 6 -4 10 -10 10 -5 0
-10 -4 -10 -10z"/>
<path d="M2070 3479 c0 -5 5 -7 10 -4 6 3 10 8 10 11 0 2 -4 4 -10 4 -5 0 -10
-5 -10 -11z"/>
<path d="M2090 3456 c0 -8 21 -32 48 -53 26 -21 51 -44 55 -50 8 -13 37 -18
37 -7 0 3 -12 20 -27 36 -73 81 -113 107 -113 74z"/>
<path d="M2240 3320 c0 -5 5 -10 10 -10 6 0 10 -8 10 -18 0 -23 30 -52 53 -52
23 0 21 17 -3 30 -11 6 -20 16 -20 22 0 11 -29 37 -42 38 -5 0 -8 -4 -8 -10z"/>
</g>
</svg>
